<svg xmlns="http://www.w3.org/2000/svg" width="48" height="48" viewBox="0 0 48 48" fill="none">
  <defs>
    <linearGradient id="fg" x1="0%" y1="0%" x2="100%" y2="100%">
      <stop offset="0%" stop-color="#6C3FFF"/>
      <stop offset="100%" stop-color="#FF7A30"/>
    </linearGradient>
  </defs>
  <!-- Rounded square background -->
  <rect width="48" height="48" rx="12" fill="url(#fg)"/>
  <!-- Headphone icon (white) -->
  <path d="M24 10C16.268 10 10 16.268 10 24v4a3 3 0 0 0 3 3h2a3 3 0 0 0 3-3v-4a3 3 0 0 0-3-3h-.17A10.98 10.98 0 0 1 24 13c4.8 0 8.88 3.077 10.17 7.333V21h-.17a3 3 0 0 0-3 3v4a3 3 0 0 0 3 3h2a3 3 0 0 0 3-3v-4c0-7.732-6.268-14-14-14z"
    fill="white" opacity="0.95"/>
  <!-- Heart accent -->
  <path d="M24 38c0 0-4-2.5-4-5 0-1.657 1.343-2.8 3-2.5.667.12 1 .5 1 .5s.333-.38 1-.5c1.657-.3 3 .843 3 2.5 0 2.5-4 5-4 5z"
    fill="white" opacity="0.9"/>
</svg>
